<?xml version="1.0" encoding="UTF-8"?>
<svg id="Capa_1" data-name="Capa 1" xmlns="http://www.w3.org/2000/svg" viewBox="0 0 83.36 83.36">
  <defs>
    <style>
      .cls-1 {
        fill: #1d1d1b;
        stroke-width: 0px;
      }
    </style>
  </defs>
  <path class="cls-1" d="m83.36,83.36H0V0h83.36v83.36Zm-2.43-80.93H2.43v78.49h78.49V2.43h.01Z"/>
  <polygon class="cls-1" points="46.3 36.61 46.3 45.13 48.51 45.13 48.51 33.4 45.98 33.4 42.31 38.44 38.64 33.4 36.1 33.4 36.1 45.13 38.31 45.13 38.31 36.6 42.04 41.71 42.48 41.71 46.3 36.61"/>
  <path class="cls-1" d="m56.97,35.16c2.76,0,3.87,2.21,3.84,4.19-.03,1.93-1.07,4.01-3.84,4.01s-3.8-2.06-3.85-3.99c-.05-1.98,1.09-4.21,3.85-4.21m0-2.01c-4.05,0-6.03,3.1-6.03,6.18s1.91,6.05,6.03,6.05,5.98-3.03,6.02-6.07c.03-3.07-1.98-6.17-6.02-6.17"/>
  <path class="cls-1" d="m75.09,35.37c-.89-1.81-2.78-2.33-4.61-2.33-2.16.02-4.54,1.01-4.54,3.42,0,2.63,2.21,3.27,4.61,3.55,1.56.17,2.72.62,2.72,1.73,0,1.27-1.31,1.76-2.7,1.76s-2.78-.57-3.3-1.86l-1.84.96c.87,2.14,2.71,2.88,5.11,2.88,2.61,0,4.93-1.12,4.93-3.74,0-2.8-2.28-3.44-4.73-3.74-1.41-.17-2.61-.45-2.61-1.47,0-.87.79-1.56,2.43-1.56,1.27,0,2.38.64,2.78,1.31.59-.3,1.17-.6,1.76-.91"/>
  <path class="cls-1" d="m28.85,33.41c-1.86,0-3.72-.02-5.58-.02v2.08h5.58c1.39,0,2.01.94,2.01,1.88s-.6,1.88-2.01,1.88h-5.58v5.92h2.21v-3.92h2.13l3.42,3.92h2.63v-.15c-1.18-1.34-2.37-2.67-3.55-4.01,2.23-.45,2.97-2.08,2.97-3.69,0-2.03-1.46-3.87-4.22-3.89"/>
  <polygon class="cls-1" points="14.37 35.87 18.44 45.14 20.84 45.14 15.58 33.41 13.17 33.41 7.9 45.14 10.3 45.14 14.37 35.87"/>
  <path class="cls-1" d="m9.81,50.78c-.1-.16-.36-.31-.67-.31-.4,0-.58.17-.58.37,0,.25.29.31.63.35.59.07,1.14.23,1.14.9,0,.63-.56.9-1.19.9-.58,0-1.02-.18-1.23-.69l.44-.23c.13.31.45.45.8.45s.65-.12.65-.42c0-.27-.28-.38-.65-.42-.58-.07-1.11-.22-1.11-.85,0-.58.57-.82,1.09-.82.44,0,.9.12,1.11.56l-.42.22h-.01Z"/>
  <path class="cls-1" d="m14.32,51.53c0,.73-.46,1.46-1.45,1.46s-1.45-.71-1.45-1.46.48-1.49,1.45-1.49,1.46.75,1.45,1.48m-2.38,0c.01.46.26.96.93.96s.92-.5.92-.96-.26-1.01-.92-1.01-.94.54-.93,1.01"/>
  <polygon class="cls-1" points="16.06 50.1 16.06 52.43 17.52 52.43 17.52 52.92 15.53 52.92 15.53 50.1 16.06 50.1"/>
  <path class="cls-1" d="m21.18,50.11v1.62c0,.83-.51,1.26-1.22,1.26s-1.25-.41-1.25-1.26v-1.62h.53v1.62c0,.51.29.78.73.78s.69-.29.69-.78v-1.62h.53-.01Z"/>
  <path class="cls-1" d="m25.01,52.57c-.29.29-.67.42-1.07.42-1.05,0-1.49-.72-1.5-1.46,0-.74.48-1.49,1.5-1.49.38,0,.75.15,1.04.43l-.35.34c-.19-.18-.44-.27-.68-.27-.68,0-.98.51-.97.98,0,.47.27.96.97.96.25,0,.52-.1.71-.29l.36.37h0Z"/>
  <rect class="cls-1" x="26" y="50.1" width=".53" height="2.82"/>
  <path class="cls-1" d="m30.62,51.53c0,.73-.46,1.46-1.45,1.46s-1.45-.71-1.45-1.46.48-1.49,1.45-1.49,1.46.75,1.45,1.48m-2.38,0c.01.46.26.96.93.96s.92-.5.92-.96-.26-1.01-.92-1.01-.94.54-.93,1.01"/>
  <polygon class="cls-1" points="33.68 50.1 34.21 50.1 34.21 52.92 33.88 52.92 33.88 52.93 32.4 51.02 32.4 52.92 31.86 52.92 31.86 50.1 32.3 50.1 33.68 51.85 33.68 50.1"/>
  <polygon class="cls-1" points="37.62 52.92 35.51 52.92 35.51 50.1 37.62 50.1 37.62 50.62 36.04 50.62 36.04 51.27 37.56 51.27 37.56 51.76 36.04 51.76 36.04 52.4 37.62 52.4 37.62 52.92"/>
  <path class="cls-1" d="m40.59,50.78c-.1-.16-.36-.31-.67-.31-.4,0-.59.17-.59.37,0,.25.29.31.63.35.59.07,1.14.23,1.14.9,0,.63-.56.9-1.19.9-.58,0-1.02-.18-1.23-.69l.44-.23c.13.31.45.45.79.45s.65-.12.65-.42c0-.27-.28-.38-.65-.42-.58-.07-1.11-.22-1.11-.85,0-.58.57-.82,1.09-.82.44,0,.9.12,1.11.56l-.42.22h0Z"/>
  <path class="cls-1" d="m46.44,51.49c0,.71-.42,1.44-1.41,1.44h-1.11v-2.82h1.11c.97,0,1.4.69,1.41,1.39m-1.99.92h.58c.64,0,.89-.47.88-.93,0-.44-.27-.88-.88-.88h-.58v1.81Z"/>
  <rect class="cls-1" x="47.61" y="50.1" width=".53" height="2.82"/>
  <polygon class="cls-1" points="49.46 52.92 49.46 50.1 51.48 50.1 51.48 50.62 49.99 50.62 49.99 51.39 51.4 51.39 51.4 51.88 49.99 51.88 49.99 52.92 49.46 52.92"/>
  <polygon class="cls-1" points="54.77 52.92 52.66 52.92 52.66 50.1 54.77 50.1 54.77 50.62 53.19 50.62 53.19 51.27 54.72 51.27 54.72 51.76 53.19 51.76 53.19 52.4 54.77 52.4 54.77 52.92"/>
  <path class="cls-1" d="m58.5,52.92h-.63l-.82-.94h-.51v.94h-.53v-2.83h1.34c.67,0,1.02.45,1.02.94,0,.39-.18.78-.71.89l.85.96v.04h-.01Zm-1.97-2.33v.9h.81c.34,0,.48-.23.48-.45s-.15-.45-.48-.45h-.81Z"/>
  <polygon class="cls-1" points="61.64 52.92 59.53 52.92 59.53 50.1 61.64 50.1 61.64 50.62 60.06 50.62 60.06 51.27 61.58 51.27 61.58 51.76 60.06 51.76 60.06 52.4 61.64 52.4 61.64 52.92"/>
  <polygon class="cls-1" points="64.72 50.1 65.25 50.1 65.25 52.92 64.92 52.92 64.92 52.93 63.44 51.02 63.44 52.92 62.91 52.92 62.91 50.1 63.34 50.1 64.72 51.85 64.72 50.1"/>
  <polygon class="cls-1" points="67.29 50.59 66.39 50.59 66.39 50.1 68.72 50.1 68.72 50.59 67.82 50.59 67.82 52.92 67.29 52.92 67.29 50.59"/>
  <polygon class="cls-1" points="71.96 52.92 69.85 52.92 69.85 50.1 71.96 50.1 71.96 50.62 70.37 50.62 70.37 51.27 71.9 51.27 71.9 51.76 70.37 51.76 70.37 52.4 71.96 52.4 71.96 52.92"/>
  <path class="cls-1" d="m74.93,50.78c-.1-.16-.36-.31-.67-.31-.4,0-.58.17-.58.37,0,.25.29.31.63.35.59.07,1.14.23,1.14.9,0,.63-.56.9-1.19.9-.58,0-1.02-.18-1.23-.69l.44-.23c.13.31.45.45.8.45s.65-.12.65-.42c0-.27-.28-.38-.65-.42-.58-.07-1.11-.22-1.11-.85,0-.58.57-.82,1.09-.82.44,0,.9.12,1.11.56l-.42.22h0Z"/>
</svg>