<?xml version="1.0" encoding="UTF-8"?>
<svg id="Capa_1" data-name="Capa 1" xmlns="http://www.w3.org/2000/svg" viewBox="0 0 83.4 83.4">
  <defs>
    <style>
      .cls-1 {
        fill: #fff;
        stroke-width: 0px;
      }
    </style>
  </defs>
  <path class="cls-1" d="m83.4,83.4H0V0h83.4v83.4Zm-2.5-81H2.4v78.5h78.5V2.4h0Z"/>
  <polygon class="cls-1" points="46.3 36.6 46.3 45.1 48.5 45.1 48.5 33.4 46 33.4 42.3 38.4 38.6 33.4 36.1 33.4 36.1 45.1 38.3 45.1 38.3 36.6 42 41.7 42.5 41.7 46.3 36.6"/>
  <path class="cls-1" d="m57,35.2c2.8,0,3.9,2.2,3.8,4.2,0,1.9-1.1,4-3.8,4s-3.8-2.1-3.8-4c-.1-2,1-4.2,3.8-4.2m0-2c-4,0-6,3.1-6,6.2s1.9,6,6,6,6-3,6-6.1-2-6.2-6-6.1"/>
  <path class="cls-1" d="m75.1,35.4c-.9-1.8-2.8-2.3-4.6-2.3-2.2,0-4.5,1-4.5,3.4,0,2.6,2.2,3.3,4.6,3.5,1.6.2,2.7.6,2.7,1.7,0,1.3-1.3,1.8-2.7,1.8s-2.8-.6-3.3-1.9l-1.8,1c.9,2.1,2.7,2.9,5.1,2.9,2.6,0,4.9-1.1,4.9-3.7,0-2.8-2.3-3.4-4.7-3.7-1.4-.2-2.6-.5-2.6-1.5,0-.9.8-1.6,2.4-1.6,1.3,0,2.4.6,2.8,1.3.5-.3,1.1-.6,1.7-.9"/>
  <path class="cls-1" d="m28.9,33.4h-5.6v2.1h5.6c1.4,0,2,.9,2,1.9s-.6,1.9-2,1.9h-5.6v5.9h2.2v-3.9h2.1l3.4,3.9h2.6v-.2c-1.2-1.3-2.4-2.7-3.5-4,2.2-.5,3-2.1,3-3.7,0-2-1.5-3.9-4.2-3.9"/>
  <polygon class="cls-1" points="14.4 35.9 18.4 45.1 20.8 45.1 15.6 33.4 13.2 33.4 7.9 45.1 10.3 45.1 14.4 35.9"/>
  <path class="cls-1" d="m9.8,50.8c-.1-.2-.4-.3-.7-.3-.4,0-.6.2-.6.4s.3.3.6.3c.6.1,1.1.2,1.1.9,0,.6-.6.9-1.2.9s-1-.2-1.2-.7l.4-.2c.1.3.4.5.8.5s.6-.1.6-.4-.3-.4-.6-.4c-.4-.2-1-.3-1-1,0-.5.6-.8,1.1-.8.4,0,.9.1,1.1.6l-.4.2h0Z"/>
  <path class="cls-1" d="m14.3,51.5c0,.7-.5,1.5-1.4,1.5s-1.4-.7-1.4-1.5.5-1.5,1.4-1.5,1.4.8,1.4,1.5m-2.4,0c0,.5.3,1,.9,1s.9-.5.9-1-.3-1-.9-1-.9.6-.9,1"/>
  <polygon class="cls-1" points="16.1 50.1 16.1 52.4 17.5 52.4 17.5 52.9 15.5 52.9 15.5 50.1 16.1 50.1"/>
  <path class="cls-1" d="m21.2,50.1v1.6c0,.8-.5,1.3-1.2,1.3s-1.2-.4-1.2-1.3v-1.6h.5v1.6c0,.5.3.8.7.8s.7-.3.7-.8v-1.6h.5Z"/>
  <path class="cls-1" d="m25,52.6c-.3.3-.7.4-1.1.4-1,0-1.5-.7-1.5-1.5,0-.7.5-1.5,1.5-1.5.4,0,.8.2,1,.4l-.4.3c-.2-.2-.4-.3-.7-.3-.7,0-1,.5-1,1s.3,1,1,1c.2,0,.5-.1.7-.3l.5.5h0Z"/>
  <rect class="cls-1" x="26" y="50.1" width=".5" height="2.8"/>
  <path class="cls-1" d="m30.6,51.5c0,.7-.5,1.5-1.5,1.5s-1.5-.7-1.5-1.5.5-1.5,1.5-1.5,1.5.8,1.5,1.5m-2.4,0c0,.5.3,1,.9,1s.9-.5.9-1-.3-1-.9-1-.9.6-.9,1"/>
  <polygon class="cls-1" points="33.7 50.1 34.2 50.1 34.2 52.9 33.9 52.9 33.9 52.9 32.4 51 32.4 52.9 31.9 52.9 31.9 50.1 32.3 50.1 33.7 51.8 33.7 50.1"/>
  <polygon class="cls-1" points="37.6 52.9 35.5 52.9 35.5 50.1 37.6 50.1 37.6 50.6 36 50.6 36 51.3 37.6 51.3 37.6 51.8 36 51.8 36 52.4 37.6 52.4 37.6 52.9"/>
  <path class="cls-1" d="m40.6,50.8c-.1-.2-.4-.3-.7-.3-.4,0-.6.2-.6.4s.3.3.6.3c.6.1,1.1.2,1.1.9,0,.6-.6.9-1.2.9s-1-.2-1.2-.7l.4-.2c.1.3.5.5.8.5s.7-.1.7-.4-.3-.4-.7-.4c-.6-.1-1.1-.2-1.1-.8s.6-.8,1.1-.8c.4,0,.9.1,1.1.6h-.3Z"/>
  <path class="cls-1" d="m46.4,51.5c0,.7-.4,1.4-1.4,1.4h-1.1v-2.8h1.1c1,0,1.4.7,1.4,1.4m-2,.9h.6c.6,0,.9-.5.9-.9s-.3-.9-.9-.9h-.6v1.8Z"/>
  <rect class="cls-1" x="47.6" y="50.1" width=".5" height="2.8"/>
  <polygon class="cls-1" points="49.5 52.9 49.5 50.1 51.5 50.1 51.5 50.6 50 50.6 50 51.4 51.4 51.4 51.4 51.9 50 51.9 50 52.9 49.5 52.9"/>
  <polygon class="cls-1" points="54.8 52.9 52.7 52.9 52.7 50.1 54.8 50.1 54.8 50.6 53.2 50.6 53.2 51.3 54.7 51.3 54.7 51.8 53.2 51.8 53.2 52.4 54.8 52.4 54.8 52.9"/>
  <path class="cls-1" d="m58.5,52.9h-.6l-.9-.9h-.5v.9h-.5v-2.8h1.3c.7,0,1,.5,1,.9s-.2.8-.7.9l.9,1h0Zm-2-2.3v.9h.8c.3,0,.5-.2.5-.5s-.2-.5-.5-.5h-.8v.1Z"/>
  <polygon class="cls-1" points="61.6 52.9 59.5 52.9 59.5 50.1 61.6 50.1 61.6 50.6 60.1 50.6 60.1 51.3 61.6 51.3 61.6 51.8 60.1 51.8 60.1 52.4 61.6 52.4 61.6 52.9"/>
  <polygon class="cls-1" points="64.7 50.1 65.2 50.1 65.2 52.9 64.9 52.9 64.9 52.9 63.4 51 63.4 52.9 62.9 52.9 62.9 50.1 63.3 50.1 64.7 51.8 64.7 50.1"/>
  <polygon class="cls-1" points="67.3 50.6 66.4 50.6 66.4 50.1 68.7 50.1 68.7 50.6 67.8 50.6 67.8 52.9 67.3 52.9 67.3 50.6"/>
  <polygon class="cls-1" points="72 52.9 69.8 52.9 69.8 50.1 72 50.1 72 50.6 70.4 50.6 70.4 51.3 71.9 51.3 71.9 51.8 70.4 51.8 70.4 52.4 72 52.4 72 52.9"/>
  <path class="cls-1" d="m74.9,50.8c-.1-.2-.4-.3-.7-.3-.4,0-.6.2-.6.4s.3.3.6.3c.6.1,1.1.2,1.1.9,0,.6-.6.9-1.2.9s-1-.2-1.2-.7l.4-.2c.1.3.4.5.8.5s.7-.1.7-.4-.3-.4-.7-.4c-.6-.1-1.1-.2-1.1-.8s.6-.8,1.1-.8c.4,0,.9.1,1.1.6h-.3Z"/>
</svg>